# xmcd CD database file
#
# Track frame offsets:
#	150
#	13695
#	27006
#	40805
#	55209
#	68894
#	82815
#	96910
#	110825
#	125530
#	140559
#	154492
#	166934
#	178280
#	193669
#	209034
#	223786
#	238070
#	251786
#	265954
#	279220
#	292693
#	305578
#	316792
#	329826
#	343614
#
# Disc length: 4779 seconds
#
# Revision: 0
# Processed by: cddbd v1.5.2PL0 Copyright (c) Steve Scherf et al.
# Submitted via: CDex 1.78
#
DISCID=9112a91a
DTITLE=Kitty Kallen - Little Things Mean a Lot
DYEAR=2016
DGENRE=Jazz
TTITLE0=Little Things Mean A Lot
TTITLE1=Love For Sale
TTITLE2=You, You Darlin'
TTITLE3=The Moon And The Willow Tree
TTITLE4=Besame Mucho
TTITLE5=Star Eyes
TTITLE6=They're Either Too Young Or Too Old
TTITLE7=When They Ask About You
TTITLE8=I'm Beginning To See The Light
TTITLE9=Guess I'll Hang My Tears Out To Dry
TTITLE10=I Don't Care Who Knows It
TTITLE11=11.60 P.M.
TTITLE12=Yash-Ta-Ta, Yah-Ta-Ta, Talk, Talk, Talk
TTITLE13=I'll Buy That Dream
TTITLE14=It's Been A Long, Long Time
TTITLE15=The Wonder Of You
TTITLE16=Waitin' For The Train To Come In
TTITLE17=Should I Tell You I L:ove You?
TTITLE18=My Heart Belongs To Daddy
TTITLE19=Juke Box Annie
TTITLE20=To Be Loved By You
TTITLE21=When I Dream I Always Dream Of You
TTITLE22=Heartless Heart
TTITLE23=In The Chapel In The Moonlight
TTITLE24=I Want You All To Myself
TTITLE25=My Colouring Book
EXTD=YEAR: 2016
EXTT0=
EXTT1=
EXTT2=
EXTT3=
EXTT4=
EXTT5=
EXTT6=
EXTT7=
EXTT8=
EXTT9=
EXTT10=
EXTT11=
EXTT12=
EXTT13=
EXTT14=
EXTT15=
EXTT16=
EXTT17=
EXTT18=
EXTT19=
EXTT20=
EXTT21=
EXTT22=
EXTT23=
EXTT24=
EXTT25=
PLAYORDER=
